M48
;DRILL file {KiCad 4.0.7-e2-6376~58~ubuntu16.04.1} date Wed Feb  7 17:29:13 2018
;FORMAT={-:-/ absolute / inch / decimal}
FMAT,2
INCH,TZ
T1C0.016
T2C0.031
T3C0.035
T4C0.039
T5C0.047
T6C0.053
T7C0.059
%
G90
G05
M72
T1
X1.85Y-2.6
X1.91Y-2.35
X1.91Y-2.41
X1.91Y-2.47
X1.91Y-2.53
X1.91Y-2.59
X1.91Y-2.65
X1.97Y-2.35
X1.97Y-2.41
X1.97Y-2.47
X1.97Y-2.53
X1.97Y-2.59
X1.97Y-2.65
X2.07Y-2.07
X2.11Y-2.11
X2.15Y-2.07
X2.15Y-2.15
X2.19Y-2.11
X2.19Y-2.19
X2.23Y-2.15
X2.27Y-2.19
X2.55Y-1.68
X2.61Y-1.71
X2.64Y-1.68
X2.67Y-1.71
X2.67Y-1.76
X2.7Y-1.68
X2.7Y-1.93
X2.81Y-1.71
X2.81Y-2.53
X2.82Y-1.57
X2.84Y-1.68
X2.87Y-1.71
X2.9Y-1.68
X2.93Y-1.71
X2.96Y-1.68
X2.96Y-1.76
X2.99Y-1.71
X3.02Y-1.68
X3.2Y-1.68
X3.2Y-2.46
X3.275Y-3.425
X3.275Y-3.475
X3.325Y-3.425
X3.325Y-3.475
X3.375Y-3.425
X3.375Y-3.475
X3.425Y-3.425
X3.425Y-3.475
X3.475Y-3.425
X3.475Y-3.475
X3.525Y-3.425
X3.525Y-3.475
X3.575Y-3.425
X3.575Y-3.475
X3.625Y-3.425
X3.625Y-3.475
X3.79Y-2.08
X3.79Y-2.13
X3.79Y-2.18
X3.84Y-2.08
X3.84Y-2.13
X3.84Y-2.18
X3.85Y-3.51
X3.89Y-2.08
X3.89Y-2.13
X3.89Y-2.18
X3.89Y-3.51
X3.93Y-3.51
X3.94Y-2.08
X3.94Y-2.13
X3.94Y-2.18
X3.97Y-3.51
X4.01Y-3.51
X4.02Y-3.12
X4.05Y-3.12
X4.05Y-3.16
X4.05Y-3.45
X4.05Y-3.49
X4.08Y-3.12
X4.09Y-3.51
X4.13Y-3.51
X4.17Y-3.51
X4.21Y-3.51
X4.22Y-3.12
X4.25Y-3.12
X4.25Y-3.16
X4.25Y-3.45
X4.25Y-3.49
X4.28Y-3.12
X4.29Y-1.92
X4.29Y-3.51
X4.33Y-3.51
X4.37Y-3.51
X4.41Y-3.51
X4.45Y-3.51
X4.72Y-2.58
X4.72Y-2.63
X4.72Y-2.68
X4.73Y-2.08
X4.73Y-2.13
X4.73Y-2.18
X4.77Y-2.58
X4.77Y-2.63
X4.77Y-2.68
X4.78Y-2.08
X4.78Y-2.13
X4.78Y-2.18
X4.8Y-1.8
X4.82Y-2.58
X4.82Y-2.63
X4.82Y-2.68
X4.83Y-2.08
X4.83Y-2.13
X4.83Y-2.18
X4.84Y-1.9
X5.08Y-2.33
X5.13Y-2.33
X5.18Y-2.33
X5.23Y-2.33
X5.28Y-2.33
X5.59Y-2.65
X5.59Y-2.69
X5.59Y-2.73
X5.59Y-2.77
X5.59Y-2.81
X5.59Y-2.85
X5.59Y-2.89
T2
X1.89Y-1.8
X1.9884Y-1.8
X2.2Y-2.3
X2.2Y-2.7
X2.44Y-2.3
X2.44Y-2.7
X2.56Y-1.7616
X2.56Y-1.86
X2.67Y-2.3
X2.67Y-2.7
X2.83Y-1.7616
X2.83Y-1.86
X3.Y-2.3
X3.Y-2.7
X3.1Y-1.7616
X3.1Y-1.86
X3.3Y-1.74
X3.55Y-1.51
X3.55Y-1.6084
X3.7Y-1.74
X3.84Y-2.32
X3.84Y-2.6
X3.8425Y-1.9724
X3.9384Y-2.32
X3.9384Y-2.6
X3.9409Y-1.9724
X4.0616Y-2.18
X4.0616Y-2.46
X4.0616Y-2.74
X4.16Y-2.18
X4.16Y-2.46
X4.16Y-2.74
X4.61Y-1.54
X4.61Y-1.74
X4.61Y-1.87
X5.01Y-1.54
X5.01Y-1.74
X5.01Y-1.87
X5.4921Y-1.811
X5.5906Y-1.811
T3
X2.Y-3.4
X2.1Y-3.4
X2.5Y-3.4
X2.6Y-3.4
X3.Y-3.4
X3.1Y-3.4
T4
X1.7Y-2.05
X1.7Y-2.15
X1.7Y-2.25
X1.7Y-2.35
X1.7Y-2.45
X1.7Y-2.55
X1.7Y-2.65
X1.7Y-2.75
X1.7Y-2.85
X1.85Y-1.5161
X1.85Y-1.6161
X1.95Y-1.5161
X1.95Y-1.6161
X2.05Y-1.5161
X2.05Y-1.6161
X2.15Y-1.5161
X2.15Y-1.6161
X2.25Y-1.5161
X2.25Y-1.6161
X2.35Y-1.5161
X2.35Y-1.6161
X2.45Y-1.5161
X2.45Y-1.6161
X2.55Y-1.5161
X2.55Y-1.6161
X2.65Y-1.5161
X2.65Y-1.6161
X2.75Y-1.5161
X2.75Y-1.6161
X2.85Y-1.5161
X2.85Y-1.6161
X2.95Y-1.5161
X2.95Y-1.6161
X3.05Y-1.5161
X3.05Y-1.6161
X3.15Y-1.5161
X3.15Y-1.6161
X3.25Y-1.5161
X3.25Y-1.6161
X3.35Y-1.5161
X3.35Y-1.6161
X3.5Y-2.05
X3.5Y-2.15
X3.5Y-2.25
X3.5Y-2.35
X3.5Y-2.45
X3.5Y-2.55
X3.5Y-2.65
X3.5Y-2.75
X3.5Y-2.85
X3.8Y-1.6
X3.9Y-1.6
X4.Y-1.6
X4.1Y-1.6
X4.2Y-1.6
X4.3Y-1.6
X5.3Y-1.6
X5.4Y-1.6
X5.5Y-1.6
X5.6Y-1.6
X5.7Y-1.6
T5
X4.425Y-2.05
X4.425Y-2.8
X5.05Y-2.05
X5.175Y-2.05
X5.3Y-2.05
X5.8Y-2.05
X5.8Y-2.8
T6
X1.7219Y-3.125
X1.8219Y-3.025
X1.8219Y-3.225
X1.9219Y-3.125
X2.325Y-3.125
X2.425Y-3.025
X2.425Y-3.225
X2.525Y-3.125
X2.7719Y-3.125
X2.8719Y-3.025
X2.8719Y-3.225
X2.9719Y-3.125
X3.375Y-3.125
X3.475Y-3.025
X3.475Y-3.225
X3.575Y-3.125
X4.955Y-3.125
X5.055Y-3.025
X5.055Y-3.225
X5.155Y-3.125
X5.5581Y-3.125
X5.6581Y-3.025
X5.6581Y-3.225
X5.7581Y-3.125
T7
X3.95Y-3.3
X4.15Y-3.3
X4.35Y-3.3
X4.55Y-3.3
T0
M30
