M48
INCH,TZ
T1C0.016
T2C0.031
T3C0.035
T4C0.039
T5C0.047
T6C0.053
T7C0.059
%
G90
G05
T1
X18500Y-26000
X19100Y-23500
X19100Y-24100
X19100Y-24700
X19100Y-25300
X19100Y-25900
X19100Y-26500
X19700Y-23500
X19700Y-24100
X19700Y-24700
X19700Y-25300
X19700Y-25900
X19700Y-26500
X20700Y-20700
X21100Y-21100
X21500Y-20700
X21500Y-21500
X21900Y-21100
X21900Y-21900
X22300Y-21500
X22700Y-21900
X25500Y-16800
X26100Y-17100
X26400Y-16800
X26700Y-17100
X26700Y-17600
X27000Y-16800
X27000Y-19300
X28100Y-17100
X28100Y-25300
X28200Y-15700
X28400Y-16800
X28700Y-17100
X29000Y-16800
X29300Y-17100
X29600Y-16800
X29600Y-17600
X29900Y-17100
X30200Y-16800
X32000Y-16800
X32000Y-24600
X32750Y-34250
X32750Y-34750
X33250Y-34250
X33250Y-34750
X33750Y-34250
X33750Y-34750
X34250Y-34250
X34250Y-34750
X34750Y-34250
X34750Y-34750
X35250Y-34250
X35250Y-34750
X35750Y-34250
X35750Y-34750
X36250Y-34250
X36250Y-34750
X37900Y-20800
X37900Y-21300
X37900Y-21800
X38400Y-20800
X38400Y-21300
X38400Y-21800
X38500Y-35100
X38900Y-20800
X38900Y-21300
X38900Y-21800
X38900Y-35100
X39300Y-35100
X39400Y-20800
X39400Y-21300
X39400Y-21800
X39700Y-35100
X40100Y-35100
X40200Y-31200
X40500Y-31200
X40500Y-31600
X40500Y-34500
X40500Y-34900
X40800Y-31200
X40900Y-35100
X41300Y-35100
X41700Y-35100
X42100Y-35100
X42200Y-31200
X42500Y-31200
X42500Y-31600
X42500Y-34500
X42500Y-34900
X42800Y-31200
X42900Y-19200
X42900Y-35100
X43300Y-35100
X43700Y-35100
X44100Y-35100
X44500Y-35100
X47200Y-25800
X47200Y-26300
X47200Y-26800
X47300Y-20800
X47300Y-21300
X47300Y-21800
X47700Y-25800
X47700Y-26300
X47700Y-26800
X47800Y-20800
X47800Y-21300
X47800Y-21800
X48000Y-18000
X48200Y-25800
X48200Y-26300
X48200Y-26800
X48300Y-20800
X48300Y-21300
X48300Y-21800
X48400Y-19000
X50800Y-23300
X51300Y-23300
X51800Y-23300
X52300Y-23300
X52800Y-23300
X55900Y-26500
X55900Y-26900
X55900Y-27300
X55900Y-27700
X55900Y-28100
X55900Y-28500
X55900Y-28900
T2
X18900Y-18000
X19884Y-18000
X22000Y-23000
X22000Y-27000
X24400Y-23000
X24400Y-27000
X25600Y-17616
X25600Y-18600
X26700Y-23000
X26700Y-27000
X28300Y-17616
X28300Y-18600
X30000Y-23000
X30000Y-27000
X31000Y-17616
X31000Y-18600
X33000Y-17400
X35500Y-15100
X35500Y-16084
X37000Y-17400
X38400Y-23200
X38400Y-26000
X38425Y-19724
X39384Y-23200
X39384Y-26000
X39409Y-19724
X40616Y-21800
X40616Y-24600
X40616Y-27400
X41600Y-21800
X41600Y-24600
X41600Y-27400
X46100Y-15400
X46100Y-17400
X46100Y-18700
X50100Y-15400
X50100Y-17400
X50100Y-18700
X54921Y-18110
X55906Y-18110
T3
X20000Y-34000
X21000Y-34000
X25000Y-34000
X26000Y-34000
X30000Y-34000
X31000Y-34000
T4
X17000Y-20500
X17000Y-21500
X17000Y-22500
X17000Y-23500
X17000Y-24500
X17000Y-25500
X17000Y-26500
X17000Y-27500
X17000Y-28500
X18500Y-15161
X18500Y-16161
X19500Y-15161
X19500Y-16161
X20500Y-15161
X20500Y-16161
X21500Y-15161
X21500Y-16161
X22500Y-15161
X22500Y-16161
X23500Y-15161
X23500Y-16161
X24500Y-15161
X24500Y-16161
X25500Y-15161
X25500Y-16161
X26500Y-15161
X26500Y-16161
X27500Y-15161
X27500Y-16161
X28500Y-15161
X28500Y-16161
X29500Y-15161
X29500Y-16161
X30500Y-15161
X30500Y-16161
X31500Y-15161
X31500Y-16161
X32500Y-15161
X32500Y-16161
X33500Y-15161
X33500Y-16161
X35000Y-20500
X35000Y-21500
X35000Y-22500
X35000Y-23500
X35000Y-24500
X35000Y-25500
X35000Y-26500
X35000Y-27500
X35000Y-28500
X38000Y-16000
X39000Y-16000
X40000Y-16000
X41000Y-16000
X42000Y-16000
X43000Y-16000
X53000Y-16000
X54000Y-16000
X55000Y-16000
X56000Y-16000
X57000Y-16000
T5
X44250Y-20500
X44250Y-28000
X50500Y-20500
X51750Y-20500
X53000Y-20500
X58000Y-20500
X58000Y-28000
T6
X17219Y-31250
X18219Y-30250
X18219Y-32250
X19219Y-31250
X23250Y-31250
X24250Y-30250
X24250Y-32250
X25250Y-31250
X27719Y-31250
X28719Y-30250
X28719Y-32250
X29719Y-31250
X33750Y-31250
X34750Y-30250
X34750Y-32250
X35750Y-31250
X49550Y-31250
X50550Y-30250
X50550Y-32250
X51550Y-31250
X55581Y-31250
X56581Y-30250
X56581Y-32250
X57581Y-31250
T7
X39500Y-33000
X41500Y-33000
X43500Y-33000
X45500Y-33000
T0
M30
